<?xml version="1.0" encoding="UTF-8" standalone="no"?>
<svg
   id="Livello_1"
   data-name="Livello 1"
   viewBox="0 0 326.11 441.59"
   version="1.1"
   sodipodi:docname="Logo_STAG_def_white.svg"
   inkscape:version="1.1 (c68e22c387, 2021-05-23)"
   xmlns:inkscape="http://www.inkscape.org/namespaces/inkscape"
   xmlns:sodipodi="http://sodipodi.sourceforge.net/DTD/sodipodi-0.dtd"
   xmlns="http://www.w3.org/2000/svg"
   xmlns:svg="http://www.w3.org/2000/svg">
  <sodipodi:namedview
     id="namedview105"
     pagecolor="#ffffff"
     bordercolor="#666666"
     borderopacity="1.0"
     inkscape:pageshadow="2"
     inkscape:pageopacity="0.0"
     inkscape:pagecheckerboard="0"
     showgrid="false"
     inkscape:zoom="3.546276"
     inkscape:cx="112.3714"
     inkscape:cy="291.71447"
     inkscape:window-width="1920"
     inkscape:window-height="1001"
     inkscape:window-x="-9"
     inkscape:window-y="-9"
     inkscape:window-maximized="1"
     inkscape:current-layer="Livello_1" />
  <defs
     id="defs60">
    <style
       id="style58">.cls-1{fill:#575756;}.cls-2{fill:#e6007e;}.cls-3{fill:#95c11f;}.cls-4{fill:#fcea10;}.cls-5{fill:#36a9e1;}</style>
  </defs>
  <path
     class="cls-1"
     d="M186.54,592.3a24.07,24.07,0,0,1-11.2-3.21,17,17,0,0,1-7.87-8.92l5.45-2a11.59,11.59,0,0,0,5.71,6.1,19,19,0,0,0,8.17,2.24,16.28,16.28,0,0,0,11.25-3.38,10.25,10.25,0,0,0,4.26-7.64q.36-8.26-15.11-12.61-11.16-3.12-15.95-8.7a13.49,13.49,0,0,1-3.43-9.58q.41-9,7.65-13.45a23.91,23.91,0,0,1,13.93-3.11q9.84.43,15.72,6.76l-4.26,4q-4.26-4.62-11.73-5a18.77,18.77,0,0,0-10.63,2.29,10.2,10.2,0,0,0-4.88,8.78q-.35,8.08,15.12,12.44,11.16,3.12,15.95,8.74a13.64,13.64,0,0,1,3.42,9.67,15.91,15.91,0,0,1-6.41,12,21.72,21.72,0,0,1-14,4.65C187.3,592.34,186.92,592.33,186.54,592.3Z"
     transform="translate(-134.4 -200.41)"
     id="path62"
     style="fill:#ffffff" />
  <path
     class="cls-1"
     d="M266.92,528.64v5.8H250.4v57.29h-5.8V534.44H228v-5.8Z"
     transform="translate(-134.4 -200.41)"
     id="path64"
     style="fill:#ffffff" />
  <path
     class="cls-1"
     d="M298.81,528.64l39.89,63.09h-6.85l-10-15.77h-25v15.77h-5.76V528.64Zm-2,7.73v33.79h21.4Z"
     transform="translate(-134.4 -200.41)"
     id="path66"
     style="fill:#ffffff" />
  <path
     class="cls-1"
     d="M356.08,582.9a32,32,0,0,1-1.7-43.61,32.63,32.63,0,0,1,24.35-11.22,32,32,0,0,1,12.58,2.5L389,535.93a25.91,25.91,0,0,0-10.24-2.06,25.47,25.47,0,0,0-18.63,7.69q-8.94,8.94-7.54,22.13a24.05,24.05,0,0,0,5.2,12.52q8.37,10.34,21,10.33a26.15,26.15,0,0,0,8.52-1.4V562.91H374.18v-5.8h18.93v31.94l-1.77.75a29.85,29.85,0,0,1-9,2.38Q366.73,593.59,356.08,582.9Z"
     transform="translate(-134.4 -200.41)"
     id="path68"
     style="fill:#ffffff" />
  <path
     class="cls-2"
     d="M378.1,384.69c.29,1.3-1.11,2.53-2,3.27a23,23,0,0,1-5.68,3.28,35.39,35.39,0,0,1-15.55,3.13c-1.37-.08-3.79-.24-4.64-1.56-.74-1.14.55-2.49,1.32-3.21,3.41-3.21,8.48-4.86,12.94-5.91a31,31,0,0,1,8.58-.94c1.44.07,4.45.22,5,1.94.3.89,1.71.51,1.41-.39-1.35-4.07-8.62-3.15-11.71-2.71-5.82.81-12.54,2.76-17,6.76-1.12,1-2.34,2.4-2.19,4s1.59,2.47,3,2.92a18.66,18.66,0,0,0,7.87.38,41.42,41.42,0,0,0,10.23-2.53,25.9,25.9,0,0,0,7.64-4.24c1.31-1.14,2.65-2.74,2.23-4.59C379.31,383.38,377.89,383.77,378.1,384.69Z"
     transform="translate(-134.4 -200.41)"
     id="path70" />
  <path
     class="cls-3"
     d="M167.58,434.42c21.79,12.12,47.33,5.3,68.64-4.25a.56.56,0,0,0,.34-.59l3.7,4.59c.59.73,1.63-.32,1-1-7-8.54-13.81-17.2-20.84-25.69,10.15.67,20.25,1.87,30.34,3.11a103.64,103.64,0,0,0-7.09,8.77c-.55.77.73,1.5,1.27.74,21.57-30.29,59.42-47.24,96.35-44.78,9.25.62,19,2.25,27.61,5.87,6.1,2.57,9.53,7.61,9,14.28-.47,6-3.75,11.1-7.44,15.69-6.16,7.68-12.39,15-17.46,23.48a142.15,142.15,0,0,0-18.54,93c.14.93,1.55.53,1.42-.39a140.43,140.43,0,0,1,21.22-96.37,135.06,135.06,0,0,1,10.16-13.63c3.36-4,6.93-7.88,9.36-12.51,3.79-7.19,4.36-17.19-2.81-22.52-3.67-2.73-8.47-4-12.82-5.12a101.23,101.23,0,0,0-13.48-2.62c-1.54-.2-3.1-.31-4.65-.43a150.29,150.29,0,0,0,21.22-18.47.76.76,0,0,0,.11-.89A230.35,230.35,0,0,1,351.07,321a112.44,112.44,0,0,1,21.15,19.44c.42.51,1.24.08,1.25-.52.21-17.88-.35-36.79-9.89-52.53A44.66,44.66,0,0,0,348.43,272c-5.81-3.46-12.35-5.26-18.95-6.59a128.9,128.9,0,0,1,37.61,5.9.77.77,0,0,0,.56,0s.05,0,.07,0a.62.62,0,0,0,.26-.9l-.06-.09a90.11,90.11,0,0,0-50.51-34.82,79.09,79.09,0,0,1,47.82,18.81.74.74,0,0,0,1-1c-11.12-13.74-23.33-28.28-38.48-37.54a116.21,116.21,0,0,1,45.51,34.77c18.94,24.13,28.24,57,23.29,87.47-2.89,17.78-15.45,28.92-28.89,39.56-.74.58.3,1.62,1,1,11.53-9.13,23.62-19.09,27.86-33.8,4.18-14.53,3.29-31.14.37-45.82a117,117,0,0,0-48.76-73.77,118.33,118.33,0,0,0-33.9-15.84,60.13,60.13,0,0,0-12.77-2.9l-.08,0h0a1.38,1.38,0,0,0-.2,0c-.81-.09-1,1.3-.19,1.44a114,114,0,0,1,14.15,3.33c18.73,6.88,33.13,22.57,45.85,38a80.53,80.53,0,0,0-50.37-15.2c-.78,0-1,1.28-.19,1.44a88.53,88.53,0,0,1,54.87,33.91,130.08,130.08,0,0,0-43.2-5.23c-.78,0-1.05,1.29-.2,1.44,8.39,1.48,17,3,24.59,7.12a43.12,43.12,0,0,1,16.31,16.54c8.55,14.8,9.28,32.24,9.14,48.94a113.93,113.93,0,0,0-21.95-19.58.74.74,0,0,0-1.08.83,227.71,227.71,0,0,0,12.18,32.33c.59,1.25,1.48,2.35,1,3.77-.3.86-1.89,1.93-2.58,2.62-1.81,1.82-3.66,3.62-5.56,5.35a125.82,125.82,0,0,1-12.3,9.65.74.74,0,0,0-.29.82c-3.42-.23-6.85-.27-10.28-.18a337.23,337.23,0,0,1-10.09-32.74.74.74,0,0,0-1.34-.18,261.78,261.78,0,0,0-15.76,37s0,0,0,.05a115.16,115.16,0,0,0-11.89,4,110.26,110.26,0,0,0-40.54,28,.72.72,0,0,0-.63-.62c-10.64-1.31-21.29-2.6-32-3.24a.64.64,0,0,0-.33.08.67.67,0,0,0-.33,1c0,.05,0,.11.05.16,1.86,2.23,3.67,4.5,5.51,6.75-2,.53-4.08,1-6.16,1.38-2.47.44-6.59,1.31-9.14.37-3.68-1.37-2.51-8.22-2.44-11.26q.12-4.8.51-9.59a168.55,168.55,0,0,1,7.88-38.67c.22-.66-.76-1.29-1.22-.71L171.59,407.6c-2.37-43.24,18.22-83.48,41.79-118.39.45-.67-.4-1.28-1-1a95,95,0,0,0-43.86,40.86c6-26.53,22.18-49.18,38-70.88.44-.61-.41-1.37-1-1a106.15,106.15,0,0,0-46.9,62.88,198.26,198.26,0,0,1,24.21-88.77c.39-.52.77-1,1.16-1.56.57-.75-.7-1.49-1.27-.74l-.54.73c-.11.06-.22.09-.29.23s-.21.39-.32.59c-12.76,16.93-23.88,35.15-31.74,54.88A176.82,176.82,0,0,0,137.67,342c-.91,17.54-.12,35.52,4.08,52.62C145.61,410.33,152.88,426.25,167.58,434.42Zm152.57-91.23q4,15.49,9.48,30.54a114.06,114.06,0,0,0-23.95,3.56A260.67,260.67,0,0,1,320.15,343.19ZM139,344.83A177.15,177.15,0,0,1,149.2,291c6.77-18.6,16.57-35.9,28-52A199.91,199.91,0,0,0,157,326.8c0,.81,1.28,1,1.44.2a104.68,104.68,0,0,1,44.51-66.44c-16.08,22.19-32.07,45.52-36.84,73-.13.75,1,1.37,1.34.57a93.72,93.72,0,0,1,43.16-43.39c-23.42,35.12-43.48,75.54-40.41,118.84,0,.56.82,1.06,1.26.52l40.47-50.74A169,169,0,0,0,204.65,403c-.11,3.41-.57,7.27,0,10.64a3.77,3.77,0,0,0,3,3.3c5.35,1.49,11.88-.39,17.13-1.79Q230.42,422,236,428.89a.68.68,0,0,0-.52,0c-20,9-43.67,15.56-64.63,5.55-15.94-7.6-23.67-23.83-27.68-40.2C139.22,378.18,138.35,361.33,139,344.83Z"
     transform="translate(-134.4 -200.41)"
     id="path72" />
  <path
     class="cls-3"
     d="M248.19,430.81a177.71,177.71,0,0,1-44.76,92.88c-.63.69.4,1.73,1,1a179.08,179.08,0,0,0,43.88-86.47,39.08,39.08,0,0,0,6.43,14.9c4.33,6.46,9.55,13.22,16.72,16.65,14.46,6.91,31.26-.52,44.49-6.91.85-.41.1-1.68-.74-1.27-12.67,6.13-29.11,13.53-43,6.91-6.78-3.23-11.7-9.54-15.84-15.6-4.44-6.52-7.84-13.86-6.77-21.92C249.74,430.19,248.32,430,248.19,430.81Z"
     transform="translate(-134.4 -200.41)"
     id="path74" />
  <path
     class="cls-3"
     d="M289.43,422.83c5.08.15,9.28-3.23,11.48-7.62a20.86,20.86,0,0,0,2.12-8.67.75.75,0,0,0-.73-.73A29.94,29.94,0,0,0,279.79,415c-.07.08-.06.16-.09.25s0,.06,0,.09a.7.7,0,0,0,0,.28c0,.08-.06.13,0,.22C280.71,420.18,285.1,422.69,289.43,422.83Zm3.63-2c-4.44,1.59-10.46-.32-11.93-5.1a28.47,28.47,0,0,1,20.37-8.42C301.12,412.72,298.51,418.86,293.06,420.81Z"
     transform="translate(-134.4 -200.41)"
     id="path76" />
  <path
     class="cls-3"
     d="M454.27,640.64a302.54,302.54,0,0,0-133.13-35.92,299,299,0,0,0-68.85,5.58c-24.81,5-48.66,14.87-73.92,17.44-7.1.72-15.2,1.32-21.23-3.2-4.68-3.52-7.11-9.29-7.65-15-1.33-13.76,8.22-25.19,16.55-35,.61-.71-.42-1.76-1-1-7.08,8.34-14.83,17.43-16.71,28.56-1.36,8.07.64,17.55,7.13,23,8.36,7,21.32,4.64,31.18,3,13.2-2.14,26-6,38.86-9.65,48.71-13.78,99.37-16.34,149-5.69a298,298,0,0,1,79.06,29.14C454.36,642.36,455.1,641.09,454.27,640.64Z"
     transform="translate(-134.4 -200.41)"
     id="path78" />
  <path
     class="cls-4"
     d="M164.64,431.49c21.8,12.11,47.33,5.3,68.65-4.25a.55.55,0,0,0,.33-.59c1.23,1.52,2.46,3.06,3.7,4.58.6.73,1.63-.31,1-1-7-8.54-13.81-17.19-20.84-25.68,10.15.66,20.25,1.87,30.34,3.11a103.13,103.13,0,0,0-7.09,8.76c-.55.77.72,1.51,1.26.74,21.57-30.29,59.42-47.24,96.36-44.77,9.25.61,19,2.25,27.6,5.86,6.1,2.57,9.53,7.61,9,14.29-.48,6-3.76,11.09-7.45,15.69-6.15,7.67-12.38,15-17.45,23.48a141.9,141.9,0,0,0-18.54,93c.14.93,1.55.54,1.41-.39a140.43,140.43,0,0,1,21.22-96.37,137.45,137.45,0,0,1,10.17-13.63c3.35-4,6.92-7.87,9.36-12.51,3.78-7.19,4.35-17.19-2.82-22.52-3.66-2.72-8.47-4-12.81-5.11a99.83,99.83,0,0,0-13.49-2.63c-1.54-.19-3.09-.3-4.64-.43a149,149,0,0,0,21.21-18.47.77.77,0,0,0,.12-.89,230.4,230.4,0,0,1-13.16-33.6,112.47,112.47,0,0,1,21.15,19.44.74.74,0,0,0,1.25-.52c.21-17.87-.35-36.78-9.88-52.52A44.78,44.78,0,0,0,345.5,269c-5.82-3.45-12.35-5.25-19-6.59a129,129,0,0,1,37.62,5.91.9.9,0,0,0,.56,0s0,0,.07,0a.62.62,0,0,0,.25-.91.9.9,0,0,0-.05-.09,90.08,90.08,0,0,0-50.51-34.81,79.1,79.1,0,0,1,47.82,18.8.73.73,0,0,0,1-1C352.21,236.48,340,222,324.86,212.69a116.1,116.1,0,0,1,45.51,34.77c18.94,24.12,28.23,57,23.28,87.47-2.89,17.77-15.45,28.92-28.89,39.55-.74.59.31,1.62,1,1,11.54-9.13,23.63-19.08,27.86-33.79,4.19-14.54,3.29-31.14.37-45.83a116.9,116.9,0,0,0-48.76-73.77,118.25,118.25,0,0,0-33.89-15.83,59.76,59.76,0,0,0-12.78-2.91h-.08l-.19,0c-.82-.09-1,1.3-.2,1.44a117.72,117.72,0,0,1,14.15,3.33c18.74,6.89,33.14,22.58,45.85,38A80.64,80.64,0,0,0,307.77,231c-.79,0-1,1.29-.2,1.44a88.63,88.63,0,0,1,54.88,33.91,130.1,130.1,0,0,0-43.21-5.23c-.78,0-1.05,1.29-.19,1.45,8.39,1.47,17,3,24.58,7.12A43.26,43.26,0,0,1,360,286.18c8.55,14.8,9.27,32.25,9.13,48.94a113.93,113.93,0,0,0-21.95-19.58.74.74,0,0,0-1.08.83,228.64,228.64,0,0,0,12.19,32.34c.58,1.25,1.48,2.34,1,3.77-.29.86-1.88,1.92-2.57,2.62-1.82,1.82-3.66,3.61-5.57,5.34a122.12,122.12,0,0,1-12.3,9.66.74.74,0,0,0-.29.82c-3.42-.23-6.85-.28-10.27-.18A337.48,337.48,0,0,1,318.13,338a.74.74,0,0,0-1.34-.17,262.45,262.45,0,0,0-15.76,37s0,0,0,0a116.21,116.21,0,0,0-11.9,4,110.16,110.16,0,0,0-40.53,27.94.75.75,0,0,0-.63-.62c-10.65-1.3-21.3-2.59-32-3.23a.52.52,0,0,0-.32.07.68.68,0,0,0-.34,1c0,.05,0,.11.05.16,1.86,2.23,3.68,4.5,5.51,6.76-2,.53-4.08,1-6.15,1.38-2.48.43-6.6,1.3-9.14.36-3.69-1.36-2.51-8.21-2.44-11.26q.11-4.8.5-9.58a168.35,168.35,0,0,1,7.89-38.67c.22-.67-.77-1.3-1.23-.72l-41.65,52.22c-2.36-43.24,18.22-83.48,41.79-118.39.45-.67-.4-1.28-1-1a95,95,0,0,0-43.87,40.85c6-26.53,22.19-49.18,38-70.87.44-.61-.41-1.37-1-1a106.19,106.19,0,0,0-46.9,62.88,198.21,198.21,0,0,1,24.22-88.77l1.15-1.56c.58-.75-.7-1.48-1.26-.74-.19.24-.36.49-.55.74a.55.55,0,0,0-.29.22l-.31.59c-12.76,16.93-23.89,35.15-31.75,54.88a176.94,176.94,0,0,0-12.11,56.62c-.91,17.53-.12,35.51,4.09,52.62C142.67,407.4,149.94,423.32,164.64,431.49Zm152.58-91.23q4,15.48,9.47,30.54a113.31,113.31,0,0,0-23.94,3.56A257.41,257.41,0,0,1,317.22,340.26ZM136.07,341.9a177,177,0,0,1,10.2-53.81c6.76-18.6,16.57-35.9,28-52a199.82,199.82,0,0,0-20.18,87.82c0,.8,1.27,1,1.44.19A104.68,104.68,0,0,1,200,257.63c-16.07,22.18-32.06,45.51-36.83,73-.13.76,1,1.38,1.34.57a93.84,93.84,0,0,1,43.15-43.39c-23.42,35.12-43.48,75.55-40.4,118.85,0,.56.82,1.06,1.25.52L209,356.44a168.8,168.8,0,0,0-7.27,43.6c-.11,3.41-.57,7.28,0,10.64a3.75,3.75,0,0,0,3,3.3c5.35,1.5,11.89-.38,17.13-1.79q5.58,6.88,11.16,13.76a.78.78,0,0,0-.52,0c-20,9-43.66,15.56-64.63,5.56-15.94-7.61-23.66-23.84-27.68-40.2C136.28,375.24,135.42,358.4,136.07,341.9Z"
     transform="translate(-134.4 -200.41)"
     id="path80" />
  <path
     class="cls-4"
     d="M245.26,427.88a177.75,177.75,0,0,1-44.76,92.87c-.64.69.39,1.73,1,1a179.24,179.24,0,0,0,43.88-86.48,38.86,38.86,0,0,0,6.43,14.9c4.32,6.47,9.54,13.22,16.71,16.65,14.47,6.92,31.27-.51,44.49-6.91.85-.41.11-1.67-.74-1.26-12.67,6.12-29.11,13.53-43,6.9-6.78-3.23-11.69-9.53-15.83-15.6-4.45-6.52-7.84-13.86-6.77-21.92C246.8,427.26,245.38,427.06,245.26,427.88Z"
     transform="translate(-134.4 -200.41)"
     id="path82" />
  <path
     class="cls-4"
     d="M286.5,419.89c5.07.15,9.28-3.23,11.48-7.62a20.65,20.65,0,0,0,2.11-8.66.74.74,0,0,0-.73-.74,29.94,29.94,0,0,0-22.5,9.15c-.08.07-.06.16-.1.24a.29.29,0,0,0,0,.1.65.65,0,0,0-.05.27c0,.08-.05.14,0,.22C277.77,417.25,282.17,419.76,286.5,419.89Zm3.63-2c-4.45,1.6-10.47-.31-11.94-5.1a28.47,28.47,0,0,1,20.37-8.42C298.18,409.78,295.57,415.92,290.13,417.87Z"
     transform="translate(-134.4 -200.41)"
     id="path84" />
  <path
     class="cls-4"
     d="M451.33,637.71a302.51,302.51,0,0,0-133.12-35.93,299,299,0,0,0-68.86,5.58c-24.8,5-48.65,14.88-73.92,17.44-7.09.72-15.2,1.33-21.23-3.2-4.68-3.51-7.1-9.29-7.65-15-1.32-13.76,8.23-25.19,16.56-35,.6-.72-.43-1.76-1-1-7.07,8.34-14.83,17.42-16.7,28.56-1.36,8.07.63,17.54,7.12,23,8.37,7.06,21.32,4.64,31.18,3,13.2-2.14,26-6,38.86-9.65,48.71-13.78,99.38-16.34,149-5.68A297.82,297.82,0,0,1,450.59,639C451.42,639.42,452.17,638.16,451.33,637.71Z"
     transform="translate(-134.4 -200.41)"
     id="path86" />
  <path
     class="cls-2"
     d="M173.45,428.55c21.79,12.11,47.33,5.3,68.64-4.25a.56.56,0,0,0,.34-.59q1.84,2.3,3.7,4.58c.6.74,1.63-.31,1-1-7-8.54-13.82-17.2-20.85-25.69,10.15.66,20.25,1.87,30.35,3.11a101.83,101.83,0,0,0-7.1,8.77c-.55.77.73,1.5,1.27.74,21.57-30.29,59.42-47.24,96.36-44.78,9.24.62,19,2.25,27.6,5.87,6.1,2.57,9.53,7.61,9,14.28-.47,6-3.75,11.1-7.44,15.69-6.16,7.68-12.39,15-17.46,23.48a142.08,142.08,0,0,0-18.53,93c.13.94,1.55.54,1.41-.39A140.37,140.37,0,0,1,363,425a135.06,135.06,0,0,1,10.16-13.63c3.36-4,6.93-7.88,9.37-12.51,3.78-7.19,4.35-17.19-2.82-22.52-3.67-2.73-8.47-4-12.82-5.12a100.92,100.92,0,0,0-13.48-2.62c-1.54-.2-3.1-.31-4.65-.43A149.17,149.17,0,0,0,370,349.64a.74.74,0,0,0,.11-.88,230,230,0,0,1-13.15-33.61,112.52,112.52,0,0,1,21.15,19.45c.42.5,1.24.07,1.25-.52.21-17.88-.35-36.79-9.89-52.53a44.64,44.64,0,0,0-15.14-15.46c-5.82-3.46-12.36-5.26-19-6.59A128.57,128.57,0,0,1,373,265.4a.77.77,0,0,0,.56,0s.05,0,.07,0a.62.62,0,0,0,.26-.9l-.06-.09a90.06,90.06,0,0,0-50.51-34.82,79.09,79.09,0,0,1,47.82,18.81.74.74,0,0,0,1-1C361,233.55,348.81,219,333.66,209.75a116,116,0,0,1,45.51,34.77c18.95,24.12,28.24,57,23.29,87.47-2.89,17.77-15.45,28.92-28.89,39.56-.74.58.3,1.61,1,1,11.54-9.12,23.63-19.08,27.86-33.79,4.18-14.53,3.29-31.14.37-45.82a116.88,116.88,0,0,0-48.76-73.77,118.33,118.33,0,0,0-33.9-15.84,58.93,58.93,0,0,0-12.77-2.9l-.08,0h0a1.08,1.08,0,0,1-.19,0c-.82-.08-1,1.31-.2,1.45a115.8,115.8,0,0,1,14.15,3.32c18.73,6.89,33.13,22.58,45.85,38A80.57,80.57,0,0,0,316.58,228c-.79,0-1.05,1.28-.2,1.44a88.49,88.49,0,0,1,54.87,33.91,130,130,0,0,0-43.2-5.23c-.78,0-1.05,1.29-.19,1.44,8.38,1.48,17,3,24.58,7.12a43.12,43.12,0,0,1,16.31,16.54c8.55,14.8,9.28,32.24,9.14,48.94a113.93,113.93,0,0,0-21.95-19.58.74.74,0,0,0-1.08.83A230.16,230.16,0,0,0,367,345.77c.59,1.25,1.48,2.34,1,3.77-.3.86-1.88,1.93-2.58,2.62-1.81,1.82-3.66,3.62-5.56,5.34a123.25,123.25,0,0,1-12.3,9.66.73.73,0,0,0-.29.82c-3.42-.23-6.85-.27-10.28-.18a340,340,0,0,1-10.09-32.74.74.74,0,0,0-1.34-.18,263,263,0,0,0-15.76,37s0,0,0,.05a114.54,114.54,0,0,0-11.9,4,110.34,110.34,0,0,0-40.54,28,.72.72,0,0,0-.63-.62c-10.64-1.31-21.29-2.6-32-3.24a.51.51,0,0,0-.32.08.67.67,0,0,0-.34,1c0,.05,0,.11,0,.16,1.86,2.23,3.67,4.5,5.51,6.75-2,.53-4.08,1-6.16,1.38-2.47.43-6.59,1.31-9.13.37-3.69-1.37-2.52-8.22-2.44-11.27s.24-6.39.5-9.58a168.57,168.57,0,0,1,7.89-38.67c.21-.66-.77-1.29-1.23-.71l-41.65,52.22c-2.37-43.24,18.22-83.48,41.79-118.4.45-.66-.4-1.27-1-1a95.07,95.07,0,0,0-43.86,40.85c6-26.52,22.19-49.18,38-70.87.45-.61-.41-1.37-1-1a106.12,106.12,0,0,0-46.9,62.88,198.26,198.26,0,0,1,24.21-88.77l1.16-1.57c.57-.75-.7-1.48-1.26-.74l-.55.74c-.11.06-.22.09-.29.22l-.32.6c-12.75,16.92-23.88,35.15-31.74,54.88a176.82,176.82,0,0,0-12.11,56.61c-.91,17.54-.12,35.52,4.08,52.62C151.48,404.46,158.75,420.38,173.45,428.55ZM326,337.32q4,15.49,9.48,30.54a113.41,113.41,0,0,0-23.95,3.56A260.67,260.67,0,0,1,326,337.32ZM144.88,339a177.09,177.09,0,0,1,10.19-53.81c6.77-18.6,16.58-35.9,28-52a200,200,0,0,0-20.18,87.82c0,.81,1.28,1,1.45.2a104.63,104.63,0,0,1,44.5-66.44c-16.07,22.18-32.06,45.52-36.84,73-.13.75,1,1.37,1.34.56a93.79,93.79,0,0,1,43.16-43.38C193.05,320,173,360.42,176.07,403.72c0,.56.82,1.06,1.25.52l40.47-50.74a168.87,168.87,0,0,0-7.27,43.6c-.11,3.42-.57,7.28,0,10.65a3.73,3.73,0,0,0,3,3.29c5.35,1.5,11.89-.38,17.13-1.79q5.58,6.88,11.16,13.77a.72.72,0,0,0-.52,0c-20,9-43.67,15.57-64.63,5.56-15.94-7.6-23.66-23.83-27.68-40.2C145.09,372.31,144.22,355.46,144.88,339Z"
     transform="translate(-134.4 -200.41)"
     id="path88" />
  <path
     class="cls-2"
     d="M254.06,424.94a177.7,177.7,0,0,1-44.75,92.87c-.64.7.39,1.74,1,1a179.18,179.18,0,0,0,43.89-86.47,38.77,38.77,0,0,0,6.43,14.9c4.32,6.46,9.54,13.22,16.71,16.64,14.47,6.92,31.26-.51,44.49-6.9.85-.41.1-1.68-.74-1.27-12.67,6.12-29.11,13.53-43,6.91-6.78-3.23-11.7-9.54-15.83-15.61-4.45-6.52-7.85-13.85-6.78-21.92C255.61,424.32,254.19,424.12,254.06,424.94Z"
     transform="translate(-134.4 -200.41)"
     id="path90" />
  <path
     class="cls-2"
     d="M295.3,417c5.08.16,9.29-3.23,11.49-7.61a20.85,20.85,0,0,0,2.11-8.67.73.73,0,0,0-.73-.73,29.94,29.94,0,0,0-22.51,9.14c-.07.08-.06.16-.09.25s0,.06,0,.09a.68.68,0,0,0,0,.28c0,.08-.05.13,0,.22C286.58,414.31,291,416.82,295.3,417Zm3.63-2c-4.44,1.59-10.46-.32-11.93-5.1a28.43,28.43,0,0,1,20.37-8.42C307,406.85,304.38,413,298.93,414.94Z"
     transform="translate(-134.4 -200.41)"
     id="path92" />
  <path
     class="cls-2"
     d="M460.14,634.77A302.54,302.54,0,0,0,327,598.85a299,299,0,0,0-68.86,5.58c-24.8,5-48.65,14.87-73.92,17.44-7.1.72-15.2,1.32-21.23-3.2-4.68-3.52-7.1-9.29-7.65-15-1.32-13.77,8.23-25.19,16.55-35,.61-.71-.42-1.76-1-1-7.07,8.34-14.83,17.43-16.71,28.56-1.36,8.07.64,17.55,7.13,23,8.36,7,21.32,4.64,31.18,3,13.2-2.15,26-6,38.86-9.65,48.71-13.79,99.37-16.35,149-5.69A297.84,297.84,0,0,1,459.4,636C460.23,636.49,461,635.22,460.14,634.77Z"
     transform="translate(-134.4 -200.41)"
     id="path94" />
  <path
     class="cls-5"
     d="M167.58,428.55c21.79,12.11,47.33,5.3,68.64-4.25a.56.56,0,0,0,.34-.59q1.84,2.3,3.7,4.58c.59.74,1.63-.31,1-1-7-8.54-13.81-17.2-20.84-25.69,10.15.66,20.25,1.87,30.34,3.11a103.64,103.64,0,0,0-7.09,8.77c-.55.77.73,1.5,1.27.74,21.57-30.29,59.42-47.24,96.35-44.78,9.25.62,19,2.25,27.61,5.87,6.1,2.57,9.53,7.61,9,14.28-.47,6-3.75,11.1-7.44,15.69-6.16,7.68-12.39,15-17.46,23.48a142.14,142.14,0,0,0-18.54,93c.14.94,1.55.54,1.42-.39A140.37,140.37,0,0,1,357.13,425a135.06,135.06,0,0,1,10.16-13.63c3.36-4,6.93-7.88,9.36-12.51,3.79-7.19,4.36-17.19-2.81-22.52-3.67-2.73-8.47-4-12.82-5.12a101.23,101.23,0,0,0-13.48-2.62c-1.54-.2-3.1-.31-4.65-.43a149.72,149.72,0,0,0,21.22-18.48.74.74,0,0,0,.11-.88,230,230,0,0,1-13.15-33.61,112.83,112.83,0,0,1,21.15,19.45c.42.5,1.24.07,1.25-.52.21-17.88-.35-36.79-9.89-52.53a44.58,44.58,0,0,0-15.15-15.46c-5.81-3.46-12.35-5.26-18.95-6.59a128.57,128.57,0,0,1,37.61,5.9.77.77,0,0,0,.56,0s.05,0,.07,0a.62.62,0,0,0,.26-.9l-.06-.09a90.06,90.06,0,0,0-50.51-34.82,79.09,79.09,0,0,1,47.82,18.81.74.74,0,0,0,1-1c-11.12-13.74-23.33-28.28-38.48-37.54a116.12,116.12,0,0,1,45.51,34.77c18.94,24.12,28.24,57,23.29,87.47-2.89,17.77-15.45,28.92-28.89,39.56-.74.58.3,1.61,1,1,11.53-9.12,23.62-19.08,27.86-33.79,4.18-14.53,3.29-31.14.37-45.82a117,117,0,0,0-48.76-73.77,118.33,118.33,0,0,0-33.9-15.84,58.93,58.93,0,0,0-12.77-2.9l-.08,0h0a1.38,1.38,0,0,1-.2,0c-.81-.08-1,1.31-.19,1.45a115.8,115.8,0,0,1,14.15,3.32c18.73,6.89,33.13,22.58,45.85,38A80.58,80.58,0,0,0,310.7,228c-.78,0-1,1.28-.19,1.44a88.49,88.49,0,0,1,54.87,33.91,130.08,130.08,0,0,0-43.2-5.23c-.78,0-1.05,1.29-.2,1.44,8.39,1.48,17,3,24.59,7.12a43.12,43.12,0,0,1,16.31,16.54c8.55,14.8,9.28,32.24,9.14,48.94a113.93,113.93,0,0,0-21.95-19.58.74.74,0,0,0-1.08.83,227.71,227.71,0,0,0,12.18,32.33c.59,1.25,1.48,2.34,1,3.77-.3.86-1.89,1.93-2.58,2.62-1.81,1.82-3.66,3.62-5.56,5.34a124.41,124.41,0,0,1-12.3,9.66.73.73,0,0,0-.29.82c-3.42-.23-6.85-.27-10.28-.18a337.23,337.23,0,0,1-10.09-32.74.74.74,0,0,0-1.34-.18,261.78,261.78,0,0,0-15.76,37s0,0,0,.05a115.16,115.16,0,0,0-11.89,4,110.26,110.26,0,0,0-40.54,28,.72.72,0,0,0-.63-.62c-10.64-1.31-21.29-2.6-32-3.24a.56.56,0,0,0-.33.08.67.67,0,0,0-.33,1c0,.05,0,.11.05.16,1.86,2.23,3.67,4.5,5.51,6.75-2,.53-4.08,1-6.16,1.38-2.47.43-6.59,1.31-9.14.37-3.68-1.37-2.51-8.22-2.44-11.27s.25-6.39.51-9.58a168.55,168.55,0,0,1,7.88-38.67c.22-.66-.76-1.29-1.22-.71q-20.84,26.1-41.65,52.22c-2.37-43.24,18.22-83.48,41.79-118.4.45-.66-.4-1.27-1-1a95.07,95.07,0,0,0-43.86,40.85c6-26.52,22.18-49.18,38-70.87.44-.61-.41-1.37-1-1a106.12,106.12,0,0,0-46.9,62.88,198.26,198.26,0,0,1,24.21-88.77l1.16-1.57c.57-.75-.7-1.48-1.27-.74l-.54.74c-.11.06-.22.09-.29.22l-.32.6c-12.76,16.92-23.88,35.15-31.74,54.88a176.82,176.82,0,0,0-12.11,56.61c-.91,17.54-.12,35.52,4.08,52.62C145.61,404.46,152.88,420.38,167.58,428.55Zm152.57-91.23q4,15.49,9.48,30.54a113.41,113.41,0,0,0-23.95,3.56A260.67,260.67,0,0,1,320.15,337.32ZM139,339a177.09,177.09,0,0,1,10.19-53.81c6.77-18.6,16.57-35.9,28-52A200,200,0,0,0,157,320.93c0,.81,1.28,1,1.44.2a104.68,104.68,0,0,1,44.51-66.44c-16.08,22.18-32.07,45.52-36.84,73-.13.75,1,1.37,1.34.56a93.75,93.75,0,0,1,43.16-43.38c-23.42,35.12-43.48,75.54-40.41,118.84,0,.56.82,1.06,1.26.52l40.47-50.74a168.87,168.87,0,0,0-7.27,43.6c-.11,3.42-.57,7.28,0,10.65a3.75,3.75,0,0,0,3,3.29c5.35,1.5,11.88-.38,17.13-1.79Q230.42,416.14,236,423a.72.72,0,0,0-.52,0c-20,9-43.67,15.57-64.63,5.56-15.94-7.6-23.67-23.83-27.68-40.2C139.22,372.31,138.35,355.46,139,339Z"
     transform="translate(-134.4 -200.41)"
     id="path96" />
  <path
     class="cls-5"
     d="M248.19,424.94a177.64,177.64,0,0,1-44.76,92.87c-.63.7.4,1.74,1,1a179.08,179.08,0,0,0,43.88-86.47,39.08,39.08,0,0,0,6.43,14.9c4.33,6.46,9.55,13.22,16.72,16.64,14.46,6.92,31.26-.51,44.49-6.9.85-.41.1-1.68-.74-1.27-12.67,6.12-29.11,13.53-43,6.91-6.78-3.23-11.7-9.54-15.84-15.61-4.44-6.52-7.84-13.85-6.77-21.92C249.74,424.32,248.32,424.12,248.19,424.94Z"
     transform="translate(-134.4 -200.41)"
     id="path98" />
  <path
     class="cls-5"
     d="M289.43,417c5.08.16,9.28-3.23,11.48-7.61a20.86,20.86,0,0,0,2.12-8.67.74.74,0,0,0-.73-.73,29.94,29.94,0,0,0-22.51,9.14c-.07.08-.06.16-.09.25s0,.06,0,.09a.68.68,0,0,0,0,.28c0,.08-.06.13,0,.22C280.71,414.31,285.1,416.82,289.43,417Zm3.63-2c-4.44,1.59-10.46-.32-11.93-5.1a28.43,28.43,0,0,1,20.37-8.42C301.12,406.85,298.51,413,293.06,414.94Z"
     transform="translate(-134.4 -200.41)"
     id="path100" />
  <path
     class="cls-5"
     d="M454.27,634.77a302.54,302.54,0,0,0-133.13-35.92,299,299,0,0,0-68.85,5.58c-24.81,5-48.66,14.87-73.92,17.44-7.1.72-15.2,1.32-21.23-3.2-4.68-3.52-7.11-9.29-7.65-15-1.33-13.77,8.22-25.19,16.55-35,.61-.71-.42-1.76-1-1-7.08,8.34-14.83,17.43-16.71,28.56-1.36,8.07.64,17.55,7.13,23,8.36,7,21.32,4.64,31.18,3,13.2-2.15,26-6,38.86-9.65,48.71-13.79,99.37-16.35,149-5.69A298,298,0,0,1,453.53,636C454.36,636.49,455.1,635.22,454.27,634.77Z"
     transform="translate(-134.4 -200.41)"
     id="path102" />
</svg>
